<svg width="1299" height="1300" xmlns="http://www.w3.org/2000/svg" xmlns:xlink="http://www.w3.org/1999/xlink" xml:space="preserve" overflow="hidden"><defs><clipPath id="clip0"><rect x="756" y="278" width="1299" height="1300"/></clipPath><linearGradient x1="756" y1="928" x2="2055" y2="928" gradientUnits="userSpaceOnUse" spreadMethod="reflect" id="fill1"><stop offset="0" stop-color="#C04F15"/><stop offset="0.66" stop-color="#973F11"/><stop offset="1" stop-color="#80350E"/></linearGradient></defs><g clip-path="url(#clip0)" transform="translate(-756 -278)"><path d="M756 928C756 569.015 1046.79 278 1405.5 278 1764.21 278 2055 569.015 2055 928 2055 1286.99 1764.21 1578 1405.5 1578 1046.79 1578 756 1286.99 756 928Z" fill="url(#fill1)" fill-rule="evenodd"/><g><g><g><path d="M1135.87 566.669 1193.44 566.669 1193.44 1332.25 1135.87 1332.25Z" fill="#FFFFFF"/><path d="M1586.78 852.563 1318.16 852.563 1318.16 795 1586.78 795 1586.78 852.563ZM1529.22 948.5 1380.52 948.5 1380.52 910.125 1529.22 910.125 1529.22 948.5ZM1634.75 564.75 1231.81 566.669 1231.81 1332.25 1634.75 1332.25C1655.86 1332.25 1673.12 1314.98 1673.12 1293.88L1673.12 603.125C1673.12 582.019 1655.86 564.75 1634.75 564.75Z" fill="#FFFFFF"/></g></g></g></g></svg>